<?xml version="1.0" standalone="no"?>
<!DOCTYPE svg PUBLIC "-//W3C//DTD SVG 20010904//EN"
 "http://www.w3.org/TR/2001/REC-SVG-20010904/DTD/svg10.dtd">
<svg version="1.0" xmlns="http://www.w3.org/2000/svg"
 width="920.000000pt" height="1037.000000pt" viewBox="0 0 920.000000 1037.000000"
 preserveAspectRatio="xMidYMid meet">

<g transform="translate(0.000000,1037.000000) scale(0.100000,-0.100000)"
fill="#000000" stroke="none">
<path d="M4365 9619 c-95 -14 -262 -58 -355 -94 -594 -228 -1003 -769 -1061
-1403 -69 -762 395 -1471 1126 -1720 184 -63 276 -76 525 -76 197 0 238 3 330
22 423 92 789 335 1036 687 71 101 173 311 212 435 135 426 96 871 -109 1270
-140 270 -375 517 -644 674 -167 97 -404 178 -598 205 -91 13 -374 13 -462 0z"/>
<path d="M3415 6276 c-49 -19 -101 -38 -115 -44 -14 -5 -60 -42 -102 -81 -347
-322 -558 -805 -594 -1362 l-7 -106 64 -12 c371 -71 683 -556 705 -1096 l5
-130 -76 -63 c-70 -58 -76 -66 -69 -90 20 -69 -1 -127 -59 -162 -109 -67 -242
55 -183 168 32 61 88 87 155 70 39 -10 43 -9 107 37 l67 48 -7 111 c-37 614
-414 1078 -829 1018 -286 -41 -535 -324 -638 -726 -24 -95 -49 -268 -49 -348
l0 -57 62 -44 c52 -38 66 -43 90 -37 71 21 158 -46 158 -121 0 -108 -108 -174
-197 -119 -58 35 -83 127 -48 177 14 20 12 24 -59 83 -72 61 -74 63 -70 104 1
22 5 78 9 124 26 376 203 751 438 928 71 53 131 85 204 109 l51 16 6 92 c25
348 102 647 232 908 51 102 164 274 230 350 98 112 96 105 29 68 -315 -173
-528 -332 -766 -569 -543 -543 -876 -1239 -979 -2047 l-12 -92 40 -58 c222
-327 543 -626 892 -834 453 -268 970 -440 1595 -528 310 -44 501 -55 915 -55
431 1 661 17 993 69 1068 170 1856 606 2359 1308 l71 98 -22 147 c-32 212 -75
392 -141 593 -102 307 -222 554 -397 818 -324 488 -727 853 -1268 1151 l-60
33 66 -74 c229 -258 390 -549 478 -866 16 -59 31 -117 33 -127 2 -15 17 -22
64 -32 163 -33 301 -148 373 -310 23 -53 26 -71 26 -189 0 -126 -1 -132 -33
-199 -46 -99 -95 -160 -168 -212 -176 -126 -406 -131 -583 -13 -186 124 -267
348 -205 569 43 150 157 274 307 331 l55 21 -29 110 c-73 271 -217 551 -397
771 -117 142 -413 407 -456 407 -6 0 -39 -48 -73 -107 -33 -60 -101 -180 -151
-268 -49 -88 -266 -473 -482 -855 -215 -382 -395 -698 -399 -702 -6 -7 -95
155 -309 556 -423 794 -739 1376 -747 1376 -5 -1 -50 -16 -100 -34z m2245
-2506 l0 -170 170 0 171 0 -3 -146 -3 -146 -167 1 -168 2 -2 -173 -3 -173
-142 -3 -143 -3 -2 173 -3 173 -170 2 -170 2 0 143 0 143 173 3 172 2 0 170 0
170 145 0 145 0 0 -170z"/>
<path d="M6589 4845 c-154 -50 -248 -186 -237 -344 9 -122 78 -225 187 -278
49 -24 68 -28 146 -28 78 0 97 4 147 28 102 50 174 155 185 271 13 145 -70
284 -207 343 -51 22 -166 26 -221 8z"/>
</g>
</svg>
