<?xml version="1.0" standalone="no"?>
<!DOCTYPE svg PUBLIC "-//W3C//DTD SVG 20010904//EN"
 "http://www.w3.org/TR/2001/REC-SVG-20010904/DTD/svg10.dtd">
<svg version="1.0" xmlns="http://www.w3.org/2000/svg"
 width="3000.000000pt" height="1778.000000pt" viewBox="0 0 3000.000000 1778.000000"
 preserveAspectRatio="xMidYMid meet">

<g transform="translate(0.000000,1778.000000) scale(0.100000,-0.100000)"
fill="#000000" stroke="none">
<path d="M15325 15018 c-26 -15 -17 -33 49 -97 75 -71 115 -91 186 -91 76 0
76 19 -1 97 -35 35 -73 69 -83 75 -28 15 -132 26 -151 16z"/>
<path d="M15587 15023 c-17 -16 -2 -43 61 -109 60 -64 74 -73 123 -84 118 -26
127 5 32 107 -50 53 -78 74 -108 82 -45 12 -98 14 -108 4z"/>
<path d="M15848 15014 c-16 -15 -7 -34 51 -107 60 -76 93 -97 173 -112 30 -6
38 -3 47 13 9 17 2 31 -49 95 -34 42 -75 82 -94 91 -40 19 -118 31 -128 20z"/>
<path d="M15057 14993 c-19 -18 0 -45 69 -101 79 -64 109 -76 184 -70 68 5 66
32 -5 93 -79 67 -118 85 -185 85 -31 0 -60 -3 -63 -7z"/>
<path d="M16106 14973 c-4 -10 9 -38 35 -77 62 -90 87 -113 137 -131 56 -19
76 -19 91 -1 9 10 0 30 -38 88 -51 78 -83 107 -140 126 -48 17 -78 15 -85 -5z"/>
<path d="M14799 14944 c-18 -22 -5 -38 79 -97 60 -42 80 -51 126 -55 124 -10
140 23 44 94 -35 26 -77 53 -95 60 -45 20 -137 18 -154 -2z"/>
<path d="M16377 14939 c-9 -6 -17 -14 -17 -19 0 -5 22 -47 50 -94 43 -74 56
-87 102 -110 58 -29 96 -33 104 -11 7 17 -66 152 -99 183 -35 33 -118 63 -140
51z"/>
<path d="M14558 14894 c-18 -6 -31 -31 -23 -44 15 -24 161 -103 199 -107 64
-7 120 9 124 34 2 17 -13 31 -74 69 -71 44 -84 49 -144 51 -36 1 -72 -1 -82
-3z"/>
<path d="M16623 14864 c-9 -23 66 -171 104 -204 55 -49 133 -63 133 -25 0 19
-67 154 -89 179 -19 22 -104 66 -126 66 -9 0 -18 -7 -22 -16z"/>
<path d="M14325 14816 c-62 -18 -54 -43 28 -88 102 -55 130 -63 193 -49 61 14
85 35 63 56 -8 7 -49 32 -92 54 -83 44 -120 49 -192 27z"/>
<path d="M16880 14785 c-10 -13 -7 -31 20 -100 35 -91 75 -138 138 -164 29
-12 35 -12 48 1 13 13 12 24 -16 92 -41 103 -55 122 -114 157 -59 34 -60 34
-76 14z"/>
<path d="M14088 14725 c-39 -13 -48 -20 -48 -39 0 -19 14 -29 84 -59 91 -40
143 -45 206 -23 23 8 36 20 38 35 3 18 -8 27 -74 57 -92 42 -143 49 -206 29z"/>
<path d="M17127 14687 c-16 -11 -15 -18 8 -93 31 -101 57 -140 117 -173 42
-23 49 -24 63 -11 14 14 12 24 -13 98 -31 94 -62 137 -119 169 -33 18 -43 20
-56 10z"/>
<path d="M13850 14612 c-35 -14 -45 -22 -45 -41 0 -20 11 -27 79 -52 94 -34
147 -36 210 -9 46 19 57 39 34 57 -26 19 -164 63 -198 63 -19 -1 -55 -9 -80
-18z"/>
<path d="M15688 14509 l-107 -79 -103 75 c-56 41 -103 73 -105 71 -2 -2 14
-58 35 -124 l40 -121 -106 -75 -105 -76 131 0 130 0 37 -112 c20 -62 39 -120
42 -128 3 -8 24 41 47 110 l41 125 129 5 128 5 -101 73 c-55 41 -101 79 -101
86 0 6 18 65 39 129 22 64 39 117 38 117 -1 -1 -50 -37 -109 -81z"/>
<path d="M17361 14571 c-13 -8 -13 -20 3 -88 23 -97 53 -152 105 -186 46 -31
54 -32 70 -14 13 16 -25 169 -53 211 -15 25 -91 86 -105 86 -3 0 -13 -4 -20
-9z"/>
<path d="M13660 14501 c-58 -18 -91 -42 -88 -63 2 -17 19 -26 83 -44 95 -28
135 -29 195 -5 92 38 79 67 -46 100 -85 22 -104 24 -144 12z"/>
<path d="M17584 14385 c13 -117 27 -156 68 -201 44 -48 72 -61 92 -45 11 9 11
26 -1 94 -8 45 -21 97 -30 115 -20 42 -81 92 -112 92 -23 0 -24 -2 -17 -55z"/>
<path d="M16666 14359 c-3 -30 -9 -90 -13 -134 l-8 -80 -129 -30 -129 -30 124
-51 c112 -46 124 -53 123 -75 -1 -13 -4 -71 -8 -129 l-6 -105 52 60 c29 32 69
76 88 97 l35 38 115 -49 c63 -27 116 -48 118 -46 2 1 -26 50 -62 109 -37 58
-66 109 -66 112 0 4 39 52 87 107 48 56 81 98 73 95 -30 -11 -251 -61 -254
-57 -2 2 -33 53 -69 113 l-65 108 -6 -53z"/>
<path d="M14419 14295 c-37 -62 -69 -105 -78 -105 -9 0 -67 13 -128 29 -62 16
-113 25 -113 21 0 -5 4 -11 8 -14 5 -3 43 -45 85 -94 l75 -89 -68 -109 c-38
-60 -67 -110 -66 -112 2 -1 36 12 77 29 41 17 95 39 120 49 l47 19 83 -99 c45
-55 84 -98 86 -97 1 2 -2 50 -7 108 -15 170 -27 148 110 204 66 26 119 49 118
51 -2 1 -43 12 -93 23 -49 12 -106 26 -127 31 l-36 10 -7 120 c-4 66 -11 122
-15 125 -4 3 -36 -43 -71 -100z"/>
<path d="M13412 14345 c-96 -44 -81 -72 51 -99 89 -17 112 -14 185 23 33 17
43 27 40 43 -3 18 -16 25 -83 40 -106 23 -130 22 -193 -7z"/>
<path d="M17810 14290 c-10 -6 -12 -27 -7 -93 9 -107 18 -131 70 -184 66 -69
88 -53 76 55 -14 116 -19 132 -56 173 -43 48 -64 60 -83 49z"/>
<path d="M13239 14206 c-47 -17 -99 -54 -99 -70 0 -24 23 -33 108 -44 93 -11
133 -4 194 34 69 44 49 67 -71 83 -99 13 -87 13 -132 -3z"/>
<path d="M18005 14120 c-12 -20 7 -194 25 -230 25 -49 73 -92 93 -84 23 9 24
168 1 222 -29 69 -99 124 -119 92z"/>
<path d="M13024 14030 c-52 -26 -86 -62 -79 -83 7 -18 151 -34 209 -23 45 9
121 66 121 92 0 15 -9 20 -45 26 -90 13 -163 9 -206 -12z"/>
<path d="M18207 13943 c-12 -20 -18 -164 -8 -199 15 -58 68 -126 95 -122 20 3
21 9 24 114 l3 111 -34 49 c-31 45 -68 67 -80 47z"/>
<path d="M12855 13856 c-51 -22 -96 -66 -93 -90 3 -19 10 -21 93 -24 103 -3
152 11 203 59 55 52 43 64 -73 66 -66 2 -110 -2 -130 -11z"/>
<path d="M15415 13763 c-551 -45 -1018 -228 -1432 -562 -127 -102 -339 -320
-431 -443 -250 -334 -407 -700 -483 -1125 -30 -168 -38 -526 -15 -713 134
-1096 951 -1979 2031 -2195 173 -35 290 -45 504 -45 333 0 618 52 911 167
1131 445 1791 1602 1594 2793 -22 132 -75 336 -119 455 -88 239 -254 532 -415
731 -82 101 -273 292 -374 374 -199 161 -492 327 -731 415 -314 115 -726 174
-1040 148z m472 -88 c462 -61 898 -247 1258 -540 120 -97 313 -297 403 -417
269 -359 429 -753 488 -1198 23 -177 15 -535 -16 -709 -173 -980 -896 -1757
-1852 -1990 -217 -53 -329 -66 -583 -66 -351 0 -613 49 -914 170 -822 330
-1412 1077 -1536 1945 -161 1133 483 2237 1549 2655 191 75 464 141 651 158
117 11 444 6 552 -8z"/>
<path d="M15450 13337 c0 -2 11 -36 24 -75 l25 -71 -67 -48 -67 -48 84 -5 84
-5 25 -75 25 -74 26 79 26 80 79 3 79 3 -62 45 c-33 24 -61 50 -61 58 0 7 9
39 20 71 11 32 18 60 15 63 -2 3 -29 -14 -59 -37 -30 -22 -60 -41 -66 -41 -6
0 -35 18 -65 40 -50 37 -65 45 -65 37z"/>
<path d="M15867 12892 c130 -172 94 -407 -80 -526 -186 -125 -436 -58 -535
144 -24 49 -27 66 -27 160 0 112 11 145 74 230 l26 35 -38 -31 c-125 -102
-189 -277 -158 -435 19 -97 54 -164 123 -235 163 -171 414 -191 606 -50 236
174 241 545 10 727 l-40 33 39 -52z"/>
<path d="M13390 12049 c1 -66 70 -152 151 -188 131 -58 389 -70 789 -37 239
20 440 25 513 13 27 -5 47 -11 44 -13 -14 -14 -985 -127 -1205 -140 -62 -4
-115 -10 -117 -14 -9 -15 18 -86 43 -112 44 -47 103 -63 232 -62 138 0 228 16
554 95 136 33 278 66 315 74 92 19 211 30 211 19 0 -11 -462 -168 -642 -219
-70 -19 -185 -49 -255 -66 -170 -40 -156 -34 -139 -66 37 -71 112 -113 203
-113 121 0 228 38 553 195 192 93 301 135 300 116 0 -3 -29 -22 -63 -42 -34
-20 -127 -75 -207 -124 -80 -49 -216 -124 -303 -168 -173 -86 -176 -90 -91
-123 32 -12 62 -15 111 -12 119 10 224 62 428 213 123 91 194 135 218 135 8 0
46 -16 84 -35 111 -56 201 -69 262 -37 48 23 48 37 3 50 -55 17 -123 65 -152
108 -24 35 -25 45 -25 173 -1 121 -3 141 -24 183 -44 91 -133 149 -281 182
-85 20 -320 34 -460 29 -627 -22 -832 -22 -1002 3 -46 6 -48 6 -48 -17z"/>
<path d="M16470 12059 c-288 -16 -449 -91 -494 -227 -13 -38 -16 -79 -14 -169
3 -116 2 -121 -24 -160 -32 -49 -97 -96 -156 -114 l-43 -12 25 -25 c49 -49
176 -37 293 29 29 16 63 29 76 29 25 0 100 -48 247 -158 52 -40 145 -97 206
-128 99 -51 120 -57 187 -62 66 -4 82 -1 132 22 32 14 56 28 54 30 -2 2 -83
44 -179 93 -165 84 -566 321 -557 329 11 11 137 -40 347 -141 299 -144 375
-170 495 -170 69 0 99 5 129 19 36 18 96 86 96 110 0 6 -37 19 -82 29 -229 51
-968 279 -968 299 0 24 177 -5 455 -74 511 -126 698 -145 824 -80 40 21 81 82
81 123 l0 26 -117 7 c-200 11 -1197 127 -1210 140 -3 2 17 8 44 13 70 12 289
7 508 -11 312 -25 442 -29 562 -17 242 25 356 93 388 235 l6 29 -53 -7 c-137
-19 -354 -24 -618 -16 -157 5 -337 11 -400 13 -63 2 -171 0 -240 -4z"/>
<path d="M15505 11876 c-43 -19 -92 -78 -106 -128 -20 -74 18 -171 80 -203 25
-13 29 -21 34 -82 4 -37 7 -171 7 -298 0 -126 3 -287 7 -357 l6 -127 45 -16
c25 -8 48 -12 51 -9 3 3 10 200 14 437 6 277 12 433 19 436 24 8 82 68 94 98
29 68 9 169 -42 214 -55 48 -145 63 -209 35z"/>
<path d="M15149 11216 c-103 -27 -209 -140 -231 -247 -10 -48 -9 -67 7 -125
17 -64 24 -75 96 -146 114 -113 212 -158 523 -238 235 -60 287 -78 302 -102
10 -16 -26 -42 -106 -75 -38 -15 -70 -31 -70 -34 0 -4 12 -10 28 -14 15 -3 58
-20 95 -37 66 -30 69 -31 101 -15 49 23 107 77 122 114 25 58 18 98 -22 143
-54 59 -152 102 -395 170 -249 71 -373 126 -443 195 -77 78 -84 165 -15 200
37 20 66 19 161 -6 44 -11 101 -19 127 -17 45 3 46 4 43 33 -4 37 -41 101 -79
137 -60 57 -166 85 -244 64z"/>
<path d="M15917 11219 c-55 -13 -108 -43 -144 -81 -37 -38 -77 -123 -69 -144
8 -20 86 -18 176 6 100 26 132 25 168 -5 39 -32 46 -65 26 -115 -32 -80 -152
-163 -313 -215 l-84 -28 133 -44 132 -43 70 37 c83 45 179 129 212 186 48 82
50 190 7 274 -25 48 -104 125 -156 151 -51 25 -109 33 -158 21z"/>
<path d="M15195 10449 c-53 -49 -64 -87 -40 -147 37 -92 146 -149 494 -257
102 -32 133 -51 129 -79 -2 -15 -18 -27 -56 -42 l-54 -21 38 -8 c45 -8 91 -30
121 -57 l22 -20 33 20 c83 52 90 170 15 250 -35 39 -149 90 -327 149 -181 61
-240 87 -240 107 0 24 34 44 105 62 l70 18 -40 9 c-22 5 -77 20 -121 33 -45
13 -87 24 -93 24 -6 0 -31 -18 -56 -41z"/>
<path d="M15534 10353 c4 -38 10 -71 14 -75 4 -3 24 -10 45 -13 l37 -7 0 70 0
71 -37 10 c-66 19 -67 19 -59 -56z"/>
<path d="M15292 10101 c-91 -85 -87 -208 9 -264 54 -31 126 -52 248 -71 51 -9
99 -21 107 -27 19 -15 18 -46 -2 -57 -12 -7 -3 -15 42 -38 33 -16 62 -30 66
-32 4 -2 21 16 37 39 41 55 42 114 5 158 -28 33 -91 56 -254 91 -99 21 -164
52 -157 73 2 6 32 26 68 43 61 31 63 33 39 42 -14 6 -60 24 -102 40 l-78 30
-28 -27z"/>
<path d="M15540 9986 c0 -57 7 -66 56 -66 21 0 24 5 24 34 0 19 2 41 5 48 4
10 -6 18 -33 26 -22 7 -42 12 -46 12 -3 0 -6 -24 -6 -54z"/>
<path d="M15350 9742 c0 -69 39 -112 175 -192 50 -29 100 -62 113 -73 29 -27
28 -69 -3 -123 l-25 -43 25 -17 c26 -17 27 -16 67 22 47 45 88 125 88 171 0
54 -55 105 -160 149 -92 38 -126 63 -117 87 3 9 -18 18 -79 33 l-84 20 0 -34z"/>
<path d="M15550 9716 c0 -21 28 -46 45 -40 16 7 27 32 19 45 -9 15 -64 11 -64
-5z"/>
<path d="M15405 9530 c-8 -16 -15 -40 -15 -54 0 -96 138 -237 330 -335 85 -43
85 -43 45 -10 -184 153 -268 273 -235 335 8 13 11 25 9 27 -25 21 -100 67
-108 67 -6 0 -17 -13 -26 -30z"/>
<path d="M15556 9435 c-7 -34 6 -75 23 -75 5 0 14 14 21 30 10 23 10 37 2 55
-17 36 -39 31 -46 -10z"/>
<path d="M15550 9147 c0 -67 17 -223 27 -247 12 -30 21 35 22 159 1 107 -1
126 -16 137 -29 22 -33 17 -33 -49z"/>
<path d="M18385 13748 c-12 -31 -20 -167 -13 -203 12 -56 55 -115 84 -115 20
0 23 6 30 58 16 118 11 165 -22 218 -30 49 -69 70 -79 42z"/>
<path d="M13335 13633 c-10 -67 -21 -127 -25 -134 -6 -9 -192 -45 -255 -49 -5
-1 44 -28 110 -62 66 -33 121 -61 122 -62 2 -1 -6 -54 -17 -117 -11 -63 -20
-121 -20 -129 0 -8 42 27 94 79 l94 93 116 -59 c64 -33 116 -58 116 -55 0 2
-27 55 -60 116 l-59 112 94 94 c52 52 93 95 92 96 -1 1 -54 -6 -117 -17 -63
-10 -123 -19 -132 -19 -13 0 -35 34 -76 117 l-59 117 -18 -121z"/>
<path d="M17747 13635 c-65 -132 -46 -123 -210 -96 l-108 18 93 -94 93 -94
-63 -120 -63 -120 122 62 122 61 94 -94 c72 -71 93 -87 89 -68 -7 32 -36 217
-36 230 0 5 53 36 117 69 133 66 137 58 -42 86 -54 9 -101 17 -103 19 -2 2
-12 59 -23 127 -11 68 -21 124 -22 126 -2 1 -28 -49 -60 -112z"/>
<path d="M12765 13681 c-33 -4 -73 -15 -90 -23 -44 -23 -87 -73 -83 -95 3 -16
13 -18 83 -16 44 1 94 4 111 8 44 8 126 81 122 109 -3 24 -41 29 -143 17z"/>
<path d="M18556 13552 c-3 -5 -13 -52 -22 -104 l-17 -95 31 -67 c27 -57 35
-67 54 -64 20 3 25 13 41 95 14 72 16 100 8 131 -20 72 -76 134 -95 104z"/>
<path d="M12634 13485 c-94 -15 -130 -31 -173 -80 -34 -39 -39 -62 -15 -72 23
-9 170 14 210 33 47 23 101 91 88 112 -14 21 -17 21 -110 7z"/>
<path d="M18718 13337 c-19 -15 -48 -130 -48 -191 0 -26 9 -64 22 -90 38 -79
61 -70 88 35 24 92 25 143 1 194 -24 53 -43 69 -63 52z"/>
<path d="M12475 13271 c-87 -22 -103 -30 -148 -81 -38 -41 -47 -74 -24 -83 18
-7 166 27 203 46 40 21 97 91 92 114 -4 24 -39 26 -123 4z"/>
<path d="M18840 13096 c-30 -81 -52 -171 -47 -200 9 -55 40 -111 62 -111 16 0
26 16 47 75 32 90 35 153 8 214 -22 53 -54 63 -70 22z"/>
<path d="M12360 13055 c-104 -30 -133 -47 -169 -101 -35 -54 -36 -57 -17 -73
11 -9 33 -7 99 13 100 29 126 44 161 95 28 40 34 76 14 84 -7 2 -47 -6 -88
-18z"/>
<path d="M18973 12878 c-6 -7 -25 -51 -43 -98 -34 -91 -36 -124 -7 -192 27
-65 49 -52 91 52 40 101 42 116 21 185 -17 60 -41 79 -62 53z"/>
<path d="M12221 12820 c-82 -33 -123 -65 -153 -124 -18 -34 -18 -40 -5 -54 14
-13 22 -12 79 8 126 46 149 63 187 134 15 30 18 43 9 53 -15 18 -33 16 -117
-17z"/>
<path d="M18506 12624 c-54 -47 -105 -83 -112 -80 -7 3 -56 32 -110 66 -53 33
-98 60 -99 58 -2 -2 19 -57 46 -122 27 -66 46 -123 42 -126 -75 -62 -193 -163
-193 -164 0 -1 59 3 132 9 l131 11 22 -51 c12 -27 35 -83 51 -123 l29 -72 31
127 31 128 59 7 c33 4 92 11 132 15 l73 8 -106 63 c-59 35 -109 70 -111 77 -3
6 6 59 21 116 30 121 34 139 32 139 -1 0 -46 -39 -101 -86z"/>
<path d="M12560 12689 c0 -8 13 -65 29 -127 l29 -113 -36 -23 c-21 -12 -70
-42 -111 -67 l-75 -44 35 -7 c19 -4 78 -10 131 -13 l96 -7 27 -116 c15 -65 30
-120 34 -124 3 -4 28 47 55 113 47 115 50 120 75 115 14 -3 73 -8 131 -11 87
-5 102 -4 89 7 -116 96 -179 153 -179 163 0 7 20 61 45 120 25 59 44 109 42
111 -2 2 -50 -26 -107 -61 -58 -36 -108 -65 -112 -65 -4 0 -42 30 -85 67 -123
105 -113 98 -113 82z"/>
<path d="M19039 12558 c-39 -78 -41 -86 -36 -151 5 -71 23 -105 50 -94 17 6
84 144 92 190 3 17 0 55 -7 82 -10 39 -18 51 -35 53 -19 3 -29 -10 -64 -80z"/>
<path d="M12118 12582 c-94 -46 -108 -59 -138 -122 -21 -45 -22 -52 -8 -66 13
-14 22 -12 89 17 41 18 88 42 104 54 34 25 81 115 72 139 -9 24 -34 19 -119
-22z"/>
<path d="M19174 12392 c-6 -4 -30 -40 -54 -81 -46 -79 -57 -130 -43 -196 7
-32 14 -41 33 -43 22 -2 31 8 70 75 42 73 45 82 44 150 0 83 -18 117 -50 95z"/>
<path d="M12030 12336 c-79 -43 -111 -80 -132 -148 -20 -66 -1 -70 97 -20 47
24 95 56 108 71 27 33 52 103 44 125 -9 24 -34 18 -117 -28z"/>
<path d="M11969 12091 c-86 -55 -102 -73 -125 -144 -15 -44 -15 -51 -1 -65 14
-14 23 -11 86 28 105 63 159 136 149 202 -5 36 -28 31 -109 -21z"/>
<path d="M19202 12083 c-60 -89 -72 -118 -72 -173 0 -111 36 -118 102 -19 57
84 70 127 60 194 -6 41 -11 51 -29 53 -17 2 -30 -10 -61 -55z"/>
<path d="M11911 11833 c-52 -39 -78 -67 -91 -97 -26 -58 -29 -106 -8 -119 14
-9 31 0 95 48 86 66 113 107 116 177 3 61 -21 60 -112 -9z"/>
<path d="M19248 11823 c-69 -88 -79 -114 -76 -186 3 -55 6 -62 24 -65 17 -2
35 14 78 68 59 76 69 105 64 185 -2 42 -6 50 -24 53 -15 2 -33 -13 -66 -55z"/>
<path d="M11885 11581 c-74 -62 -89 -84 -105 -156 -21 -93 10 -97 107 -15 52
43 76 71 88 103 20 52 17 121 -5 124 -8 2 -47 -24 -85 -56z"/>
<path d="M19275 11558 c-69 -76 -85 -110 -85 -182 0 -82 21 -83 94 -4 68 74
82 97 91 160 16 105 -19 114 -100 26z"/>
<path d="M12550 11466 c-41 -58 -80 -106 -86 -106 -6 0 -61 16 -123 36 -62 19
-114 34 -116 32 -1 -2 31 -48 71 -103 41 -54 74 -102 74 -105 0 -3 -33 -51
-74 -105 -40 -55 -71 -101 -67 -103 4 -1 59 16 124 37 l117 40 24 -32 c13 -18
49 -67 80 -111 l55 -78 3 138 3 138 110 34 c61 18 113 37 117 41 5 4 -46 24
-112 46 l-119 39 -3 134 -3 135 -75 -107z"/>
<path d="M18540 11434 l0 -131 -125 -39 c-68 -21 -121 -42 -117 -46 4 -3 60
-23 124 -43 l117 -36 3 -130 3 -131 63 89 c34 48 68 96 76 105 12 17 21 15
131 -22 65 -22 120 -38 122 -36 3 2 -30 50 -71 107 -46 63 -72 107 -67 113 65
84 148 204 138 201 -6 -2 -63 -20 -124 -40 -62 -20 -117 -34 -121 -31 -5 3
-38 45 -72 93 -35 49 -67 92 -72 98 -4 5 -8 -50 -8 -121z"/>
<path d="M11873 11328 c-71 -68 -88 -98 -98 -174 -6 -39 -4 -53 9 -63 14 -12
25 -6 81 44 74 65 99 107 109 182 6 46 4 53 -14 63 -18 10 -29 3 -87 -52z"/>
<path d="M19283 11292 c-54 -52 -74 -78 -83 -111 -16 -60 -10 -115 14 -119 26
-5 142 111 162 163 19 51 16 129 -6 133 -8 1 -47 -28 -87 -66z"/>
<path d="M11873 11065 c-71 -81 -82 -104 -83 -178 0 -78 17 -84 76 -26 69 67
102 123 110 185 7 56 -4 84 -32 84 -7 0 -39 -29 -71 -65z"/>
<path d="M19278 11034 c-75 -63 -97 -100 -100 -170 -4 -70 19 -70 103 0 74 62
100 106 102 175 3 67 -21 66 -105 -5z"/>
<path d="M11905 10823 c-62 -77 -85 -127 -85 -188 0 -50 12 -75 36 -75 20 0
123 141 135 184 14 53 1 129 -23 134 -11 2 -34 -18 -63 -55z"/>
<path d="M19251 10774 c-53 -41 -78 -68 -91 -98 -27 -63 -32 -102 -14 -117 12
-10 27 -3 86 37 84 58 112 93 128 156 24 95 -5 101 -109 22z"/>
<path d="M11978 10616 c-8 -7 -34 -44 -58 -81 -39 -60 -45 -76 -48 -134 -4
-72 12 -109 41 -98 24 9 107 139 117 184 14 60 -4 143 -31 143 -4 0 -14 -6
-21 -14z"/>
<path d="M19227 10531 c-83 -54 -114 -88 -133 -143 -29 -90 -5 -99 98 -37 82
50 111 82 128 142 24 86 -2 97 -93 38z"/>
<path d="M18395 10293 l-50 -123 -35 0 c-19 0 -78 5 -130 10 -52 5 -96 8 -97
6 -3 -2 100 -92 176 -153 l22 -18 -31 -75 c-18 -41 -40 -97 -51 -123 l-19 -49
37 23 c21 13 72 44 114 70 l76 47 97 -84 c54 -46 99 -84 101 -84 4 0 2 6 -30
137 -14 56 -25 106 -25 111 0 5 51 40 113 78 l112 69 -134 10 -135 10 -31 130
-30 130 -50 -122z"/>
<path d="M12684 10278 l-29 -123 -110 -8 c-60 -5 -118 -11 -128 -15 -13 -5 9
-23 88 -71 58 -35 107 -66 109 -70 2 -3 -10 -60 -25 -125 -16 -66 -28 -121
-26 -122 1 -2 45 33 96 76 51 44 97 80 103 80 6 0 57 -29 114 -65 57 -35 104
-60 104 -56 0 4 -20 56 -45 115 -25 60 -45 113 -44 119 0 7 43 47 95 91 52 43
93 80 92 82 -2 1 -56 -2 -121 -8 -65 -5 -124 -7 -130 -5 -7 3 -33 55 -57 116
-25 61 -48 111 -51 111 -3 0 -18 -55 -35 -122z"/>
<path d="M12028 10363 c-8 -10 -33 -49 -54 -88 -33 -60 -38 -78 -37 -126 1
-66 16 -99 43 -99 14 0 32 24 66 86 46 84 46 87 42 156 -4 44 -11 74 -19 79
-20 12 -24 11 -41 -8z"/>
<path d="M19159 10271 c-88 -48 -98 -57 -125 -116 -44 -93 -25 -111 69 -64 94
47 127 76 153 135 41 93 13 106 -97 45z"/>
<path d="M12060 10049 c-44 -92 -51 -152 -26 -214 24 -56 46 -46 89 41 44 89
53 142 35 204 -10 34 -19 46 -36 48 -19 3 -28 -9 -62 -79z"/>
<path d="M19095 10028 c-98 -43 -118 -60 -151 -122 -26 -51 -27 -57 -13 -71
15 -15 22 -14 90 16 101 44 130 68 158 127 24 50 23 82 -1 82 -7 0 -44 -15
-83 -32z"/>
<path d="M12193 9892 c-22 -14 -73 -161 -72 -210 1 -71 21 -117 50 -117 21 0
28 11 56 80 18 44 33 97 33 119 0 79 -35 147 -67 128z"/>
<path d="M18980 9777 c-71 -27 -89 -39 -117 -75 -37 -49 -51 -88 -35 -104 18
-18 183 47 219 85 63 66 80 128 36 127 -10 -1 -56 -15 -103 -33z"/>
<path d="M12287 9653 c-2 -5 -17 -46 -32 -92 -30 -91 -30 -130 1 -196 31 -66
54 -55 86 40 15 44 28 99 28 122 0 57 -33 133 -59 133 -11 0 -22 -3 -24 -7z"/>
<path d="M18868 9544 c-80 -25 -127 -61 -157 -116 -16 -31 -9 -58 16 -58 9 0
55 12 102 26 64 19 93 34 116 58 60 64 71 117 23 115 -13 0 -58 -12 -100 -25z"/>
<path d="M12407 9433 c-3 -5 -15 -47 -27 -93 -24 -92 -22 -125 9 -195 17 -38
25 -46 43 -43 20 3 26 15 45 83 29 106 28 132 -4 196 -26 50 -54 72 -66 52z"/>
<path d="M17820 9285 l-93 -94 -111 57 c-61 31 -115 58 -119 60 -4 2 21 -51
55 -117 l63 -121 -95 -91 -95 -90 50 6 c28 3 87 11 133 19 l83 13 59 -116 c66
-131 59 -133 85 34 9 54 18 101 21 105 3 3 62 14 132 26 l127 20 -117 59 c-92
47 -118 64 -118 80 0 11 9 70 19 130 10 61 18 111 17 112 -1 1 -44 -40 -96
-92z"/>
<path d="M13250 9355 c1 -11 9 -69 19 -128 l18 -109 -21 -13 c-12 -7 -66 -35
-120 -62 l-99 -50 119 -17 c65 -10 126 -20 135 -22 12 -3 20 -35 35 -134 l19
-131 63 121 c49 92 68 120 80 116 35 -9 223 -38 227 -34 3 2 -36 44 -85 93
l-89 88 60 119 59 118 -117 -59 -118 -59 -92 91 c-67 66 -93 86 -93 72z"/>
<path d="M18741 9318 c-69 -17 -89 -26 -121 -58 -52 -52 -62 -73 -47 -94 11
-15 18 -15 99 3 100 22 133 40 177 95 24 30 28 42 20 57 -12 23 -22 23 -128
-3z"/>
<path d="M12536 9208 c-11 -37 -26 -137 -26 -176 0 -49 41 -136 69 -147 24 -9
37 18 51 106 15 95 9 139 -25 190 -25 39 -62 52 -69 27z"/>
<path d="M18613 9105 c-93 -15 -138 -38 -175 -91 -30 -42 -27 -64 9 -64 46 0
168 22 193 35 44 23 92 81 88 106 -4 29 -12 30 -115 14z"/>
<path d="M12690 9005 c-9 -11 -14 -52 -14 -124 -1 -101 1 -109 27 -150 54 -82
75 -68 90 58 11 103 -1 152 -48 204 -30 31 -38 33 -55 12z"/>
<path d="M18390 8891 c-47 -10 -68 -22 -110 -65 -28 -30 -32 -40 -24 -54 9
-14 24 -16 85 -14 107 5 146 18 197 66 64 61 55 76 -40 75 -40 -1 -89 -4 -108
-8z"/>
<path d="M12846 8804 c-11 -30 -6 -184 7 -217 20 -45 65 -97 87 -97 25 0 30
19 30 118 0 91 -16 141 -59 190 -22 26 -56 29 -65 6z"/>
<path d="M14461 8625 c-45 -52 -88 -95 -95 -95 -7 0 -53 17 -102 39 -148 64
-144 67 -69 -54 36 -58 66 -110 68 -114 1 -5 -35 -52 -81 -105 -46 -53 -79
-96 -75 -96 4 0 58 12 120 26 62 15 118 24 126 21 7 -3 43 -54 78 -114 l64
-108 10 135 10 135 123 30 c67 16 122 32 122 35 0 4 -50 26 -111 51 -61 24
-114 50 -116 57 -3 7 -1 65 5 130 6 64 9 118 7 120 -1 1 -39 -40 -84 -93z"/>
<path d="M16625 8608 c4 -63 8 -123 8 -132 2 -13 -27 -29 -108 -62 -60 -25
-113 -49 -118 -53 -4 -4 49 -20 117 -36 l124 -28 6 -56 c3 -31 8 -91 12 -134
l6 -78 70 116 c52 85 75 114 87 111 64 -19 224 -56 228 -53 2 3 -32 47 -77 98
-44 52 -80 96 -80 99 0 3 29 52 64 110 36 57 63 106 61 108 -2 2 -52 -17 -112
-42 -60 -25 -114 -46 -120 -46 -6 0 -48 44 -93 97 l-83 97 8 -116z"/>
<path d="M18165 8684 c-16 -8 -44 -29 -62 -46 -26 -25 -30 -35 -22 -50 8 -15
22 -18 92 -18 45 0 98 5 118 10 50 14 123 79 114 103 -6 15 -21 17 -109 17
-72 0 -110 -5 -131 -16z"/>
<path d="M13023 8624 c-10 -27 5 -191 20 -221 23 -43 83 -97 101 -90 13 5 16
23 16 88 0 101 -13 148 -57 199 -36 42 -69 52 -80 24z"/>
<path d="M17944 8488 c-37 -25 -49 -39 -49 -58 0 -24 4 -25 75 -33 102 -10
147 -2 202 36 87 58 56 87 -92 87 -82 0 -91 -2 -136 -32z"/>
<path d="M15576 8498 c-4 -9 -23 -63 -41 -120 l-34 -103 -133 -5 -133 -5 89
-65 c49 -36 97 -72 108 -80 18 -15 17 -19 -22 -134 -22 -66 -39 -121 -37 -122
1 -2 49 31 105 72 l104 75 26 -17 c15 -9 52 -36 82 -59 30 -23 67 -50 82 -59
l27 -18 -39 118 c-22 65 -40 123 -40 129 0 6 48 45 106 86 l106 74 -135 3
-135 3 -40 122 c-27 84 -41 117 -46 105z"/>
<path d="M13215 8459 c-9 -13 3 -143 17 -189 14 -46 86 -122 113 -118 18 3 20
9 17 68 -4 108 -20 159 -65 207 -38 42 -69 54 -82 32z"/>
<path d="M17749 8332 c-42 -22 -55 -34 -57 -54 -3 -24 1 -28 35 -35 21 -4 77
-8 124 -8 77 0 90 3 128 28 32 21 41 34 39 50 -3 19 -13 24 -78 34 -111 17
-132 16 -191 -15z"/>
<path d="M13415 8300 c-10 -16 16 -161 36 -201 34 -69 118 -123 132 -85 6 14
-16 140 -34 193 -19 58 -115 124 -134 93z"/>
<path d="M17568 8200 c-35 -11 -86 -41 -92 -55 -9 -24 14 -37 99 -56 94 -21
125 -19 186 11 82 42 70 69 -44 94 -84 17 -108 18 -149 6z"/>
<path d="M13624 8155 c-6 -16 22 -146 39 -180 14 -29 68 -85 98 -100 54 -29
62 16 23 145 -26 90 -141 186 -160 135z"/>
<path d="M17304 8051 c-42 -19 -58 -39 -46 -58 10 -16 152 -53 200 -53 76 0
154 45 134 77 -10 16 -152 53 -203 53 -24 0 -62 -9 -85 -19z"/>
<path d="M13844 8025 c-3 -8 6 -52 21 -97 22 -67 36 -91 71 -125 47 -46 88
-63 107 -44 17 17 -37 173 -75 217 -49 56 -112 81 -124 49z"/>
<path d="M17090 7942 c-46 -15 -55 -22 -58 -43 -3 -24 3 -28 93 -59 91 -31
100 -32 151 -21 62 14 98 39 89 62 -5 15 -177 80 -207 78 -7 0 -38 -8 -68 -17z"/>
<path d="M14073 7914 c-7 -20 42 -149 74 -192 40 -53 133 -91 146 -59 7 18
-59 176 -85 205 -26 27 -89 62 -113 62 -9 0 -18 -7 -22 -16z"/>
<path d="M16830 7837 c-23 -8 -36 -19 -38 -33 -2 -17 11 -27 80 -57 89 -40
151 -47 218 -24 58 20 47 46 -35 86 -79 39 -166 50 -225 28z"/>
<path d="M14310 7825 c-11 -14 -8 -27 21 -87 51 -106 79 -136 164 -168 18 -7
28 -5 39 6 14 13 11 24 -25 97 -48 96 -62 113 -109 137 -58 29 -76 32 -90 15z"/>
<path d="M16590 7757 c-55 -19 -47 -44 30 -88 90 -51 132 -61 200 -46 47 11
55 16 55 36 0 19 -16 31 -83 67 -90 47 -134 54 -202 31z"/>
<path d="M14550 7745 c-10 -12 -5 -27 25 -80 53 -95 88 -131 146 -150 89 -30
99 -7 42 89 -50 84 -70 105 -128 132 -59 28 -68 29 -85 9z"/>
<path d="M14799 7684 c-11 -13 -10 -21 5 -48 58 -107 137 -174 212 -179 56 -3
54 23 -9 113 -39 57 -63 80 -97 97 -66 31 -95 36 -111 17z"/>
<path d="M16323 7690 c-39 -16 -26 -39 55 -90 88 -57 122 -66 195 -54 42 7 53
13 55 30 2 17 -13 31 -75 70 -70 44 -85 49 -143 51 -36 2 -75 -2 -87 -7z"/>
<path d="M15048 7644 c-16 -16 -6 -37 47 -105 62 -76 110 -107 177 -111 37 -3
43 0 46 17 4 29 -94 153 -140 176 -42 21 -119 35 -130 23z"/>
<path d="M16061 7636 c-17 -21 -5 -37 62 -86 82 -58 132 -75 194 -64 41 8 48
12 48 33 0 19 -17 36 -78 77 -76 52 -80 54 -146 54 -46 0 -72 -5 -80 -14z"/>
<path d="M15294 7606 c-4 -10 9 -33 35 -65 70 -83 105 -108 167 -121 63 -13
90 -5 88 24 -2 20 -86 113 -132 146 -43 31 -148 42 -158 16z"/>
<path d="M15561 7612 c-29 -10 -8 -50 57 -109 74 -66 121 -87 187 -81 64 5 59
32 -22 104 -37 33 -74 64 -81 68 -17 10 -124 24 -141 18z"/>
<path d="M15803 7603 c-5 -12 10 -32 53 -70 71 -65 100 -81 158 -89 113 -16
127 25 34 101 -79 65 -100 74 -176 75 -50 0 -64 -3 -69 -17z"/>
<path d="M8405 6455 c-52 -51 -16 -145 55 -145 45 0 67 15 79 53 29 87 -71
156 -134 92z"/>
<path d="M8725 6455 c-54 -53 -16 -145 60 -145 40 0 74 28 76 63 3 46 -3 63
-27 85 -33 29 -78 29 -109 -3z"/>
<path d="M11265 6455 c-53 -53 -16 -145 58 -145 75 0 110 97 53 146 -36 31
-80 31 -111 -1z"/>
<path d="M20685 6455 c-53 -53 -16 -145 58 -145 73 0 106 91 52 145 -15 16
-36 25 -55 25 -19 0 -40 -9 -55 -25z"/>
<path d="M23849 6451 c-32 -33 -36 -58 -14 -100 20 -40 71 -54 114 -31 25 13
45 64 37 95 -17 66 -88 85 -137 36z"/>
<path d="M14278 6225 c-154 -39 -305 -156 -366 -286 -51 -106 -66 -179 -66
-309 1 -189 48 -316 158 -425 116 -116 254 -161 460 -152 112 5 230 27 249 46
5 5 3 28 -3 52 -18 73 -15 70 -60 54 -22 -8 -78 -19 -125 -26 -310 -41 -526
150 -525 465 1 184 86 347 218 419 111 60 290 73 415 29 l56 -20 16 53 c8 29
15 58 15 64 0 39 -324 66 -442 36z"/>
<path d="M7177 6223 c-4 -3 -7 -33 -7 -65 l0 -58 180 0 180 0 0 -520 0 -520
75 0 75 0 0 520 0 520 175 0 175 0 0 65 0 65 -423 0 c-233 0 -427 -3 -430 -7z"/>
<path d="M8190 5845 c0 -421 6 -486 58 -595 34 -73 107 -143 179 -172 50 -19
76 -23 183 -23 107 0 133 4 182 23 74 30 160 108 192 175 58 118 61 148 61
577 l0 395 -75 0 -75 0 -5 -420 -5 -420 -33 -68 c-50 -100 -121 -146 -231
-147 -110 0 -189 48 -235 143 -40 82 -46 156 -46 550 l0 367 -75 0 -75 0 0
-385z"/>
<path d="M9410 6225 c-8 -2 -32 -6 -53 -10 l-37 -6 2 -572 3 -572 73 -3 72 -3
0 257 0 257 108 -5 c189 -8 222 -42 284 -292 22 -88 47 -173 54 -188 14 -27
18 -28 89 -28 l74 0 -15 43 c-8 23 -33 113 -55 201 -22 87 -48 175 -59 195
-19 38 -92 111 -110 111 -23 0 -7 18 29 35 52 23 115 89 143 150 32 70 31 180
-1 252 -30 67 -92 124 -167 154 -53 20 -78 23 -239 25 -99 2 -187 1 -195 -1z
m362 -137 c61 -28 92 -64 109 -129 27 -99 -20 -199 -115 -248 -43 -22 -65 -26
-173 -29 l-123 -4 2 213 3 214 30 7 c17 4 71 6 121 4 71 -2 102 -8 146 -28z"/>
<path d="M10280 5645 l0 -586 73 3 72 3 3 225 3 225 53 59 53 59 193 -286 192
-287 85 0 c73 0 84 2 79 16 -3 8 -101 156 -217 327 -116 171 -213 316 -216
323 -2 7 88 121 201 253 113 132 206 243 206 246 0 3 -40 5 -89 5 l-90 0 -169
-207 c-93 -115 -194 -241 -225 -281 l-57 -74 -2 279 -3 278 -72 3 -73 3 0
-586z"/>
<path d="M11250 5645 l0 -586 73 3 72 3 0 580 0 580 -72 3 -73 3 0 -586z"/>
<path d="M11570 6222 c0 -5 81 -156 180 -336 l180 -328 0 -249 0 -249 75 0 75
0 0 247 0 247 193 330 c105 181 194 333 195 338 2 4 -35 8 -81 8 l-85 0 -133
-257 c-72 -142 -137 -268 -143 -280 -10 -20 -26 5 -151 255 l-140 277 -82 3
c-46 2 -83 -1 -83 -6z"/>
<path d="M12630 5645 l0 -585 325 0 325 0 0 65 0 65 -250 0 -250 0 0 210 0
210 225 0 225 0 0 60 0 60 -225 0 -225 0 0 185 0 185 240 0 241 0 -3 63 -3 62
-312 3 -313 2 0 -585z"/>
<path d="M14910 5838 c0 -433 5 -483 60 -594 36 -73 91 -126 169 -163 52 -24
66 -26 186 -26 112 0 138 4 187 23 113 46 200 155 233 293 12 51 15 142 15
462 l0 398 -72 -3 -73 -3 -5 -415 c-5 -403 -6 -417 -28 -472 -54 -134 -190
-197 -337 -157 -56 16 -126 89 -156 164 -23 59 -24 65 -27 473 l-3 412 -75 0
-74 0 0 -392z"/>
<path d="M16080 6228 c0 -2 -18 -259 -40 -573 -22 -313 -40 -576 -40 -582 0
-9 21 -13 69 -13 l69 0 6 63 c13 131 37 560 43 750 3 108 7 196 9 194 2 -1 23
-72 48 -157 38 -132 105 -334 248 -752 l30 -88 56 0 57 0 134 370 c73 203 152
429 175 502 l43 132 6 -174 c9 -228 36 -720 43 -787 l5 -53 70 0 69 0 0 38 c0
46 -58 984 -66 1070 l-6 62 -93 0 c-92 0 -93 0 -103 -27 -5 -16 -57 -156 -115
-313 -58 -157 -126 -352 -152 -435 -58 -187 -57 -182 -60 -170 -2 6 -22 75
-46 155 -34 119 -219 658 -260 763 -11 27 -12 27 -105 27 -52 0 -94 -1 -94 -2z"/>
<path d="M17440 5645 l0 -586 73 3 72 3 3 273 2 272 280 0 280 0 0 -275 0
-275 75 0 75 0 0 585 0 585 -75 0 -75 0 0 -245 0 -245 -280 0 -280 0 -2 243
-3 242 -72 3 -73 3 0 -586z"/>
<path d="M18580 5833 c0 -442 5 -489 61 -593 39 -73 92 -123 168 -158 47 -22
74 -27 164 -30 91 -4 119 -1 176 18 122 39 204 120 252 252 23 61 23 73 27
486 l3 422 -75 0 -75 0 -3 -412 c-4 -482 -5 -486 -91 -573 -37 -36 -66 -55
-100 -64 -57 -16 -160 -10 -203 12 -43 22 -90 73 -112 121 -38 80 -42 136 -42
531 l0 385 -75 0 -75 0 0 -397z"/>
<path d="M19800 6225 c-8 -2 -32 -6 -52 -10 l-38 -6 0 -574 0 -575 75 0 75 0
0 255 0 255 83 0 c105 0 173 -20 214 -62 42 -43 54 -74 97 -251 52 -209 44
-197 134 -197 72 0 74 1 68 23 -4 12 -27 101 -52 196 -25 96 -56 196 -69 222
-24 47 -88 109 -112 109 -26 0 -12 16 24 29 57 21 137 107 157 169 56 167 -16
332 -170 392 -53 21 -77 24 -239 26 -99 2 -187 1 -195 -1z m345 -129 c86 -37
126 -97 127 -192 0 -90 -34 -147 -117 -189 -54 -27 -69 -30 -177 -34 l-118 -3
0 215 0 216 33 4 c66 10 212 0 252 -17z"/>
<path d="M20665 6218 c-3 -7 -4 -269 -3 -583 l3 -570 73 -3 72 -3 0 586 0 585
-70 0 c-47 0 -72 -4 -75 -12z"/>
<path d="M21022 6153 c23 -43 107 -195 185 -338 l143 -260 0 -247 0 -248 75 0
75 0 0 249 0 248 195 334 195 334 -82 3 c-45 2 -85 -1 -89 -5 -4 -4 -70 -130
-146 -280 l-139 -272 -140 277 -141 277 -87 3 -87 3 43 -78z"/>
<path d="M22050 5645 l0 -585 325 0 325 0 0 65 0 65 -250 0 -250 0 0 210 0
210 225 0 225 0 0 60 0 60 -225 0 -225 0 0 185 0 185 240 0 241 0 -3 63 -3 62
-312 3 -313 2 0 -585z"/>
<path d="M22817 6223 c-4 -3 -7 -33 -7 -65 l0 -58 180 0 180 0 0 -520 0 -521
73 3 72 3 3 518 2 517 175 0 175 0 0 65 0 65 -423 0 c-233 0 -427 -3 -430 -7z"/>
<path d="M23830 5645 l0 -585 75 0 75 0 0 585 0 585 -75 0 -75 0 0 -585z"/>
<path d="M9840 4676 c0 -110 96 -186 235 -186 119 0 203 53 230 144 23 77 24
76 -55 76 -52 0 -70 -3 -70 -14 0 -7 -12 -25 -26 -40 -49 -49 -159 -28 -179
34 -5 17 -15 20 -71 20 l-64 0 0 -34z"/>
<path d="M22708 4705 c-3 -3 -2 -25 3 -48 4 -23 8 -45 9 -49 0 -5 16 -26 36
-48 57 -63 169 -87 282 -58 65 16 126 79 140 144 6 26 8 52 6 56 -3 4 -33 8
-67 8 -59 0 -63 -2 -75 -28 -32 -73 -173 -67 -197 8 -5 17 -15 20 -69 20 -34
0 -65 -2 -68 -5z"/>
<path d="M7528 4430 c-144 -26 -244 -90 -298 -191 -32 -58 -34 -71 -35 -149 0
-73 4 -92 27 -136 45 -86 130 -150 272 -204 167 -65 206 -97 206 -169 -1 -71
-44 -110 -137 -125 -57 -8 -182 10 -262 39 -36 14 -69 21 -72 17 -7 -8 -49
-175 -49 -196 0 -17 95 -50 194 -67 41 -7 113 -9 175 -6 266 14 421 145 421
356 0 85 -21 147 -68 201 -49 58 -115 98 -256 155 -143 59 -186 94 -186 151 0
52 20 79 75 100 58 22 184 15 270 -14 33 -11 61 -19 63 -17 2 1 16 48 31 104
l28 100 -41 16 c-95 35 -268 52 -358 35z"/>
<path d="M9980 4416 c-142 -31 -250 -86 -337 -172 -149 -149 -202 -409 -129
-628 62 -185 183 -294 385 -348 142 -37 380 -26 559 27 l52 16 0 304 0 305
-220 0 -220 0 0 -100 0 -100 90 0 90 0 0 -125 0 -125 -25 -6 c-14 -3 -69 -4
-123 -2 -73 3 -108 10 -143 27 -74 35 -125 86 -160 157 -28 56 -33 78 -37 162
-10 206 76 337 252 388 77 21 255 16 338 -11 32 -10 59 -17 61 -14 2 2 15 48
29 102 30 112 34 104 -67 131 -84 23 -311 30 -395 12z"/>
<path d="M14465 4419 c-60 -5 -115 -11 -122 -14 -10 -3 -13 -123 -13 -574 l0
-570 58 -7 c31 -4 134 -8 227 -7 271 1 402 38 494 139 58 63 81 124 81 210 0
119 -49 201 -154 255 l-64 33 48 28 c90 51 130 121 130 227 0 53 -6 76 -28
116 -80 146 -270 193 -657 164z m352 -205 c65 -26 92 -117 54 -180 -29 -48
-82 -68 -188 -72 l-93 -4 0 135 0 136 43 4 c60 6 146 -3 184 -19z m10 -472
c75 -39 107 -106 84 -182 -14 -46 -67 -95 -118 -109 -21 -6 -75 -11 -120 -11
l-83 0 0 166 0 167 98 -5 c72 -4 108 -10 139 -26z"/>
<path d="M22850 4416 c-268 -58 -440 -221 -485 -459 -19 -101 -19 -179 1 -275
44 -215 180 -355 401 -413 144 -38 381 -27 561 26 l52 16 0 304 0 305 -220 0
-220 0 0 -100 0 -100 90 0 90 0 0 -125 0 -125 -25 -6 c-14 -3 -69 -4 -123 -2
-73 3 -108 10 -143 27 -74 35 -125 86 -161 159 -32 64 -33 71 -33 188 0 119 1
122 35 190 43 85 106 135 203 165 58 18 86 21 180 17 70 -3 134 -12 169 -23
32 -10 59 -17 61 -14 2 2 15 48 29 102 28 112 33 104 -67 131 -84 23 -311 30
-395 12z"/>
<path d="M8390 3853 c-95 -313 -175 -574 -178 -581 -3 -10 25 -12 133 -10
l138 3 40 143 39 142 168 0 167 0 43 -145 44 -145 142 0 143 0 -19 58 c-15 45
-316 1016 -336 1085 -5 15 -22 17 -178 17 l-173 0 -173 -567z m350 315 c13
-52 84 -304 105 -370 l14 -48 -129 0 -129 0 25 88 c22 79 72 276 88 345 9 37
13 34 26 -15z"/>
<path d="M10890 3840 l0 -580 360 0 360 0 0 110 0 110 -230 0 -230 0 0 470 0
470 -130 0 -130 0 0 -580z"/>
<path d="M11920 3840 l0 -580 130 0 130 0 0 580 0 580 -130 0 -130 0 0 -580z"/>
<path d="M12580 3840 l0 -580 130 0 130 0 0 186 0 186 46 59 c26 32 50 59 53
59 3 0 68 -110 144 -245 l139 -245 154 0 153 0 -68 113 c-37 61 -127 210 -199
329 -73 119 -132 218 -132 220 0 2 85 114 190 249 l189 244 -157 3 -157 3 -23
-28 c-12 -15 -91 -130 -175 -255 l-152 -227 -3 255 -2 254 -130 0 -130 0 0
-580z"/>
<path d="M15611 3847 c-96 -314 -176 -576 -178 -580 -3 -4 58 -6 134 -5 l138
3 39 143 39 142 168 0 168 0 25 -82 c13 -46 33 -111 43 -145 l18 -63 142 0
c110 0 141 3 138 13 -2 6 -74 239 -160 517 -86 278 -165 533 -176 568 l-21 62
-171 0 -172 0 -174 -573z m374 237 c28 -107 64 -230 91 -316 5 -17 -5 -18
-120 -18 -78 0 -126 4 -126 10 0 6 22 92 49 193 27 100 52 201 56 225 4 24 9
41 11 39 3 -2 20 -62 39 -133z"/>
<path d="M16800 3840 l0 -580 130 0 130 0 0 193 1 192 48 55 48 54 32 -54 c17
-30 79 -140 139 -245 l107 -190 153 -3 c83 -1 152 0 152 3 0 3 -88 149 -195
326 -107 177 -195 326 -195 331 0 6 85 120 190 254 l190 244 -163 0 c-156 -1
-163 -1 -178 -23 -9 -12 -86 -127 -173 -255 l-156 -232 0 255 0 255 -130 0
-130 0 0 -580z"/>
<path d="M18170 3853 c-95 -313 -175 -574 -178 -581 -3 -10 25 -12 133 -10
l138 3 40 143 39 142 168 0 167 0 44 -145 43 -145 143 0 142 0 -19 58 c-15 44
-313 1006 -336 1085 -5 15 -22 17 -178 17 l-173 0 -173 -567z m401 132 c21
-77 46 -161 54 -187 l14 -48 -129 0 c-99 0 -128 3 -125 13 16 50 87 317 101
382 l18 80 13 -50 c8 -27 32 -113 54 -190z"/>
<path d="M19350 3840 l0 -580 126 0 127 0 -7 423 -7 422 100 -200 c55 -110
156 -299 223 -420 l124 -220 142 -3 142 -3 0 581 0 580 -121 0 -121 0 4 -392
c3 -216 8 -402 13 -413 5 -13 5 -17 -2 -10 -5 6 -20 35 -32 65 -41 99 -157
321 -278 535 l-120 210 -157 3 -156 3 0 -581z"/>
<path d="M20720 3840 l0 -580 360 0 360 0 0 110 0 110 -230 0 -230 0 0 470 0
470 -130 0 -130 0 0 -580z"/>
<path d="M21750 3840 l0 -580 130 0 130 0 0 580 0 580 -130 0 -130 0 0 -580z"/>
<path d="M23730 3840 l0 -580 130 0 130 0 0 580 0 580 -130 0 -130 0 0 -580z"/>
</g>
</svg>
